<svg width="36" height="36" viewBox="0 0 36 36" fill="none" xmlns="http://www.w3.org/2000/svg">
<path d="M9.75 30C7.475 30 5.531 29.2125 3.918 27.6375C2.305 26.0625 1.499 24.1375 1.5 21.8625C1.5 19.9125 2.0875 18.175 3.2625 16.65C4.4375 15.125 5.975 14.15 7.875 13.725C8.5 11.425 9.75 9.5625 11.625 8.1375C13.5 6.7125 15.625 6 18 6C20.925 6 23.4065 7.019 25.4445 9.057C27.4825 11.095 28.501 13.576 28.5 16.5C30.225 16.7 31.6565 17.444 32.7945 18.732C33.9325 20.02 34.501 21.526 34.5 23.25C34.5 25.125 33.8435 26.719 32.5305 28.032C31.2175 29.345 29.624 30.001 27.75 30H19.5C18.675 30 17.9685 29.706 17.3805 29.118C16.7925 28.53 16.499 27.824 16.5 27V19.275L14.1 21.6L12 19.5L18 13.5L24 19.5L21.9 21.6L19.5 19.275V27H27.75C28.8 27 29.6875 26.6375 30.4125 25.9125C31.1375 25.1875 31.5 24.3 31.5 23.25C31.5 22.2 31.1375 21.3125 30.4125 20.5875C29.6875 19.8625 28.8 19.5 27.75 19.5H25.5V16.5C25.5 14.425 24.7685 12.656 23.3055 11.193C21.8425 9.73 20.074 8.999 18 9C15.925 9 14.156 9.7315 12.693 11.1945C11.23 12.6575 10.499 14.426 10.5 16.5H9.75C8.3 16.5 7.0625 17.0125 6.0375 18.0375C5.0125 19.0625 4.5 20.3 4.5 21.75C4.5 23.2 5.0125 24.4375 6.0375 25.4625C7.0625 26.4875 8.3 27 9.75 27H13.5V30H9.75Z" fill="black"/>
</svg>
