<svg width="35" height="35" viewBox="0 0 35 35" fill="none" xmlns="http://www.w3.org/2000/svg">
<path d="M27.7083 10.2083H23.3333V8.74999C23.3333 7.20289 22.7187 5.71916 21.6247 4.6252C20.5307 3.53124 19.047 2.91666 17.4999 2.91666C15.9528 2.91666 14.4691 3.53124 13.3751 4.6252C12.2812 5.71916 11.6666 7.20289 11.6666 8.74999V10.2083H7.29159C6.90481 10.2083 6.53388 10.362 6.26039 10.6355C5.9869 10.9089 5.83325 11.2799 5.83325 11.6667V27.7083C5.83325 28.8686 6.29419 29.9814 7.11466 30.8019C7.93513 31.6224 9.04793 32.0833 10.2083 32.0833H24.7916C25.9519 32.0833 27.0647 31.6224 27.8852 30.8019C28.7057 29.9814 29.1666 28.8686 29.1666 27.7083V11.6667C29.1666 11.2799 29.0129 10.9089 28.7395 10.6355C28.466 10.362 28.095 10.2083 27.7083 10.2083ZM14.5833 8.74999C14.5833 7.97644 14.8905 7.23458 15.4375 6.68759C15.9845 6.14061 16.7264 5.83332 17.4999 5.83332C18.2735 5.83332 19.0153 6.14061 19.5623 6.68759C20.1093 7.23458 20.4166 7.97644 20.4166 8.74999V10.2083H14.5833V8.74999ZM26.2499 27.7083C26.2499 28.0951 26.0963 28.466 25.8228 28.7395C25.5493 29.013 25.1784 29.1667 24.7916 29.1667H10.2083C9.82148 29.1667 9.45055 29.013 9.17705 28.7395C8.90356 28.466 8.74992 28.0951 8.74992 27.7083V13.125H11.6666V14.5833C11.6666 14.9701 11.8202 15.341 12.0937 15.6145C12.3672 15.888 12.7381 16.0417 13.1249 16.0417C13.5117 16.0417 13.8826 15.888 14.1561 15.6145C14.4296 15.341 14.5833 14.9701 14.5833 14.5833V13.125H20.4166V14.5833C20.4166 14.9701 20.5702 15.341 20.8437 15.6145C21.1172 15.888 21.4881 16.0417 21.8749 16.0417C22.2617 16.0417 22.6326 15.888 22.9061 15.6145C23.1796 15.341 23.3333 14.9701 23.3333 14.5833V13.125H26.2499V27.7083Z" fill="black"/>
</svg>
