<svg width="36" height="36" viewBox="0 0 36 36" fill="none" xmlns="http://www.w3.org/2000/svg">
<path d="M13.5 20.625C9.99 20.625 3 22.38 3 25.875V28.5H24V25.875C24 22.38 17.01 20.625 13.5 20.625ZM6.51 25.5C7.77 24.63 10.815 23.625 13.5 23.625C16.185 23.625 19.23 24.63 20.49 25.5H6.51ZM13.5 18C16.395 18 18.75 15.645 18.75 12.75C18.75 9.855 16.395 7.5 13.5 7.5C10.605 7.5 8.25 9.855 8.25 12.75C8.25 15.645 10.605 18 13.5 18ZM13.5 10.5C14.745 10.5 15.75 11.505 15.75 12.75C15.75 13.995 14.745 15 13.5 15C12.255 15 11.25 13.995 11.25 12.75C11.25 11.505 12.255 10.5 13.5 10.5ZM24.06 20.715C25.8 21.975 27 23.655 27 25.875V28.5H33V25.875C33 22.845 27.75 21.12 24.06 20.715ZM22.5 18C25.395 18 27.75 15.645 27.75 12.75C27.75 9.855 25.395 7.5 22.5 7.5C21.69 7.5 20.94 7.695 20.25 8.025C21.195 9.36 21.75 10.995 21.75 12.75C21.75 14.505 21.195 16.14 20.25 17.475C20.94 17.805 21.69 18 22.5 18Z" fill="black"/>
</svg>
