<svg width="35" height="35" viewBox="0 0 35 35" fill="none" xmlns="http://www.w3.org/2000/svg">
<path fill-rule="evenodd" clip-rule="evenodd" d="M8.75 8.75V14H14V8.75H8.75ZM7 6.125C6.76794 6.125 6.54538 6.21719 6.38128 6.38128C6.21719 6.54538 6.125 6.76794 6.125 7V15.75C6.125 15.9821 6.21719 16.2046 6.38128 16.3687C6.54538 16.5328 6.76794 16.625 7 16.625H15.75C15.9821 16.625 16.2046 16.5328 16.3687 16.3687C16.5328 16.2046 16.625 15.9821 16.625 15.75V7C16.625 6.76794 16.5328 6.54538 16.3687 6.38128C16.2046 6.21719 15.9821 6.125 15.75 6.125H7ZM21 8.75V14H26.25V8.75H21ZM19.25 6.125C19.0179 6.125 18.7954 6.21719 18.6313 6.38128C18.4672 6.54538 18.375 6.76794 18.375 7V15.75C18.375 15.9821 18.4672 16.2046 18.6313 16.3687C18.7954 16.5328 19.0179 16.625 19.25 16.625H28C28.2321 16.625 28.4546 16.5328 28.6187 16.3687C28.7828 16.2046 28.875 15.9821 28.875 15.75V7C28.875 6.76794 28.7828 6.54538 28.6187 6.38128C28.4546 6.21719 28.2321 6.125 28 6.125H19.25ZM8.75 21V26.25H14V21H8.75ZM7 18.375C6.76794 18.375 6.54538 18.4672 6.38128 18.6313C6.21719 18.7954 6.125 19.0179 6.125 19.25V28C6.125 28.2321 6.21719 28.4546 6.38128 28.6187C6.54538 28.7828 6.76794 28.875 7 28.875H15.75C15.9821 28.875 16.2046 28.7828 16.3687 28.6187C16.5328 28.4546 16.625 28.2321 16.625 28V19.25C16.625 19.0179 16.5328 18.7954 16.3687 18.6313C16.2046 18.4672 15.9821 18.375 15.75 18.375H7ZM21 21V26.25H26.25V21H21ZM19.25 18.375C19.0179 18.375 18.7954 18.4672 18.6313 18.6313C18.4672 18.7954 18.375 19.0179 18.375 19.25V28C18.375 28.2321 18.4672 28.4546 18.6313 28.6187C18.7954 28.7828 19.0179 28.875 19.25 28.875H28C28.2321 28.875 28.4546 28.7828 28.6187 28.6187C28.7828 28.4546 28.875 28.2321 28.875 28V19.25C28.875 19.0179 28.7828 18.7954 28.6187 18.6313C28.4546 18.4672 28.2321 18.375 28 18.375H19.25Z" fill="black"/>
</svg>
