<svg width="34" height="34" viewBox="0 0 34 34" fill="none" xmlns="http://www.w3.org/2000/svg">
<path d="M18.4167 4.25C15.0352 4.25 11.7922 5.5933 9.40114 7.98439C7.01005 10.3755 5.66675 13.6185 5.66675 17H1.41675L6.92758 22.5108L7.02675 22.7092L12.7501 17H8.50008C8.50008 11.5175 12.9342 7.08333 18.4167 7.08333C23.8992 7.08333 28.3334 11.5175 28.3334 17C28.3334 22.4825 23.8992 26.9167 18.4167 26.9167C15.6826 26.9167 13.2034 25.7975 11.4184 23.9983L9.40675 26.01C10.5874 27.1972 11.9914 28.1389 13.5378 28.7808C15.0842 29.4227 16.7424 29.7521 18.4167 29.75C21.7983 29.75 25.0413 28.4067 27.4324 26.0156C29.8234 23.6245 31.1667 20.3815 31.1667 17C31.1667 13.6185 29.8234 10.3755 27.4324 7.98439C25.0413 5.5933 21.7983 4.25 18.4167 4.25ZM17.0001 11.3333V18.4167L23.0634 22.015L24.0834 20.3008L19.1251 17.3542V11.3333H17.0001Z" fill="black"/>
</svg>
