<svg width="35" height="35" viewBox="0 0 35 35" fill="none" xmlns="http://www.w3.org/2000/svg">
<path d="M6.01561 20.2344H28.9844C29.4 20.2345 29.8002 20.3924 30.1039 20.6762C30.4076 20.96 30.5923 21.3485 30.6207 21.7632C30.649 22.1779 30.5189 22.5879 30.2565 22.9103C29.9942 23.2328 29.6193 23.4437 29.2075 23.5003L28.9844 23.5156H6.01561C5.59994 23.5155 5.1998 23.3576 4.89607 23.0738C4.59233 22.79 4.40764 22.4015 4.37931 21.9868C4.35097 21.5721 4.48112 21.1621 4.74343 20.8397C5.00575 20.5172 5.38069 20.3063 5.79249 20.2497L6.01561 20.2344ZM6.01561 11.4844H28.9844C29.4 11.4845 29.8002 11.6424 30.1039 11.9262C30.4076 12.21 30.5923 12.5985 30.6207 13.0132C30.649 13.4279 30.5189 13.8379 30.2565 14.1603C29.9942 14.4828 29.6193 14.6937 29.2075 14.7503L28.9844 14.7656H6.01561C5.59994 14.7655 5.1998 14.6076 4.89607 14.3238C4.59233 14.04 4.40764 13.6515 4.37931 13.2368C4.35097 12.8221 4.48112 12.4121 4.74343 12.0897C5.00575 11.7672 5.38069 11.5563 5.79249 11.4997L6.01561 11.4844Z" fill="black"/>
</svg>
