<svg width="35" height="35" viewBox="0 0 35 35" fill="none" xmlns="http://www.w3.org/2000/svg">
<path d="M8.75 15.3125C8.16984 15.3125 7.61344 15.543 7.2032 15.9532C6.79297 16.3634 6.5625 16.9198 6.5625 17.5C6.5625 18.0802 6.79297 18.6366 7.2032 19.0468C7.61344 19.457 8.16984 19.6875 8.75 19.6875C9.33016 19.6875 9.88656 19.457 10.2968 19.0468C10.707 18.6366 10.9375 18.0802 10.9375 17.5C10.9375 16.9198 10.707 16.3634 10.2968 15.9532C9.88656 15.543 9.33016 15.3125 8.75 15.3125ZM15.3125 17.5C15.3125 16.9198 15.543 16.3634 15.9532 15.9532C16.3634 15.543 16.9198 15.3125 17.5 15.3125C18.0802 15.3125 18.6366 15.543 19.0468 15.9532C19.457 16.3634 19.6875 16.9198 19.6875 17.5C19.6875 18.0802 19.457 18.6366 19.0468 19.0468C18.6366 19.457 18.0802 19.6875 17.5 19.6875C16.9198 19.6875 16.3634 19.457 15.9532 19.0468C15.543 18.6366 15.3125 18.0802 15.3125 17.5ZM24.0625 17.5C24.0625 16.9198 24.293 16.3634 24.7032 15.9532C25.1134 15.543 25.6698 15.3125 26.25 15.3125C26.8302 15.3125 27.3866 15.543 27.7968 15.9532C28.207 16.3634 28.4375 16.9198 28.4375 17.5C28.4375 18.0802 28.207 18.6366 27.7968 19.0468C27.3866 19.457 26.8302 19.6875 26.25 19.6875C25.6698 19.6875 25.1134 19.457 24.7032 19.0468C24.293 18.6366 24.0625 18.0802 24.0625 17.5Z" fill="black"/>
</svg>
