<svg width="35" height="35" viewBox="0 0 35 35" fill="none" xmlns="http://www.w3.org/2000/svg">
<path d="M4.23796 25.5281L7.78317 5.42209C7.84957 5.04478 7.98964 4.68425 8.1954 4.3611C8.40116 4.03794 8.66856 3.75848 8.98234 3.53868C9.29612 3.31889 9.65013 3.16306 10.0241 3.08011C10.3982 2.99715 10.7848 2.98869 11.1621 3.05521L28.3967 6.09584C29.1585 6.23027 29.8356 6.66178 30.2792 7.29545C30.7228 7.92912 30.8965 8.71305 30.7621 9.4748L27.2169 29.5808C27.1505 29.9581 27.0104 30.3187 26.8047 30.6418C26.5989 30.965 26.3315 31.2444 26.0178 31.4642C25.704 31.684 25.35 31.8399 24.976 31.9228C24.6019 32.0058 24.2152 32.0142 23.838 31.9477L6.60338 28.9071C5.84164 28.7727 5.1645 28.3411 4.7209 27.7075C4.27731 27.0738 4.10359 26.2899 4.23796 25.5281Z" stroke="black" stroke-width="1.5"/>
<path d="M13.0215 9.30708L24.5117 11.3327M12.0079 15.0515L23.4981 17.0785M10.9958 20.7958L18.1767 22.0631" stroke="black" stroke-width="1.5" stroke-linecap="round"/>
</svg>
