<svg width="35" height="35" viewBox="0 0 35 35" fill="none" xmlns="http://www.w3.org/2000/svg">
<path d="M5.83325 26.25C5.83325 24.7029 6.44783 23.2192 7.5418 22.1252C8.63576 21.0313 10.1195 20.4167 11.6666 20.4167H23.3333C24.8803 20.4167 26.3641 21.0313 27.458 22.1252C28.552 23.2192 29.1666 24.7029 29.1666 26.25C29.1666 27.0236 28.8593 27.7654 28.3123 28.3124C27.7653 28.8594 27.0235 29.1667 26.2499 29.1667H8.74992C7.97637 29.1667 7.2345 28.8594 6.68752 28.3124C6.14054 27.7654 5.83325 27.0236 5.83325 26.25Z" stroke="black" stroke-width="2" stroke-linejoin="round"/>
<path d="M17.5 14.5833C19.9162 14.5833 21.875 12.6246 21.875 10.2083C21.875 7.7921 19.9162 5.83334 17.5 5.83334C15.0838 5.83334 13.125 7.7921 13.125 10.2083C13.125 12.6246 15.0838 14.5833 17.5 14.5833Z" stroke="black" stroke-width="2"/>
</svg>
