<svg width="33" height="33" viewBox="0 0 33 33" fill="none" xmlns="http://www.w3.org/2000/svg">
<path d="M12.7187 30.25L12.1687 25.85C11.8707 25.7354 11.5898 25.5979 11.3258 25.4375C11.0618 25.2771 10.8042 25.1052 10.553 24.9219L6.4624 26.6406L2.68115 20.1094L6.22178 17.4281C6.19886 17.2677 6.1874 17.1128 6.1874 16.9634V16.0366C6.1874 15.8872 6.19886 15.7323 6.22178 15.5719L2.68115 12.8906L6.4624 6.35938L10.553 8.07812C10.8051 7.89479 11.0687 7.72292 11.3437 7.5625C11.6187 7.40208 11.8937 7.26458 12.1687 7.15L12.7187 2.75H20.2812L20.8312 7.15C21.1291 7.26458 21.41 7.40208 21.674 7.5625C21.938 7.72292 22.1956 7.89479 22.4468 8.07812L26.5374 6.35938L30.3187 12.8906L26.778 15.5719C26.8009 15.7323 26.8124 15.8872 26.8124 16.0366V16.9634C26.8124 17.1128 26.7895 17.2677 26.7437 17.4281L30.2843 20.1094L26.503 26.6406L22.4468 24.9219C22.1947 25.1052 21.9312 25.2771 21.6562 25.4375C21.3812 25.5979 21.1062 25.7354 20.8312 25.85L20.2812 30.25H12.7187ZM15.1249 27.5H17.8405L18.3218 23.8563C19.0322 23.6729 19.6913 23.4034 20.299 23.0477C20.9068 22.6921 21.4623 22.2626 21.9655 21.7594L25.3687 23.1688L26.7093 20.8312L23.753 18.5969C23.8676 18.276 23.9478 17.9383 23.9937 17.5835C24.0395 17.2288 24.0624 16.8676 24.0624 16.5C24.0624 16.1333 24.0395 15.7726 23.9937 15.4179C23.9478 15.0631 23.8676 14.7249 23.753 14.4031L26.7093 12.1688L25.3687 9.83125L21.9655 11.275C21.4614 10.7479 20.9059 10.307 20.299 9.95225C19.6922 9.5975 19.0331 9.328 18.3218 9.14375L17.8749 5.5H15.1593L14.678 9.14375C13.9676 9.32708 13.309 9.59658 12.7022 9.95225C12.0953 10.3079 11.5394 10.7374 11.0343 11.2406L7.63115 9.83125L6.29053 12.1688L9.24678 14.3687C9.13219 14.7125 9.05199 15.0562 9.00615 15.4C8.96032 15.7437 8.9374 16.1104 8.9374 16.5C8.9374 16.8667 8.96032 17.2219 9.00615 17.5656C9.05199 17.9094 9.13219 18.2531 9.24678 18.5969L6.29053 20.8312L7.63115 23.1688L11.0343 21.725C11.5384 22.2521 12.0944 22.6935 12.7022 23.0491C13.3099 23.4048 13.9685 23.6738 14.678 23.8563L15.1249 27.5ZM16.5687 21.3125C17.8978 21.3125 19.0322 20.8427 19.9718 19.9031C20.9114 18.9635 21.3812 17.8292 21.3812 16.5C21.3812 15.1708 20.9114 14.0365 19.9718 13.0969C19.0322 12.1573 17.8978 11.6875 16.5687 11.6875C15.2166 11.6875 14.0762 12.1573 13.1477 13.0969C12.2191 14.0365 11.7552 15.1708 11.7562 16.5C11.7562 17.8292 12.22 18.9635 13.1477 19.9031C14.0753 20.8427 15.2157 21.3125 16.5687 21.3125Z" fill="black"/>
</svg>
